<mxfile host="app.diagrams.net" modified="2024-01-25T13:18:51.015Z" agent="Mozilla/5.0 (X11; Linux x86_64) AppleWebKit/537.36 (KHTML, like Gecko) Chrome/102.0.0.0 Safari/537.36" etag="LOfwiyVbwhqohMYNFfc0" version="23.0.1" type="github">
  <diagram id="uMv5k3oVzNV7NbuxyRFv" name="Page-1">
    <mxGraphModel dx="1195" dy="601" grid="0" gridSize="10" guides="0" tooltips="1" connect="0" arrows="0" fold="1" page="1" pageScale="1" pageWidth="827" pageHeight="1169" math="0" shadow="0">
      <root>
        <mxCell id="0" />
        <mxCell id="1" parent="0" />
        <mxCell id="m2NS53Eczy5EkaWd5YY3-2" value="&lt;div style=&quot;&quot;&gt;&lt;span&gt;func sum(a, b int64) (r int64) {&lt;/span&gt;&lt;/div&gt;&lt;blockquote style=&quot;margin: 0 0 0 40px ; border: none ; padding: 0px&quot;&gt;&lt;div style=&quot;&quot;&gt;&lt;span&gt;r = a + b&lt;/span&gt;&lt;/div&gt;&lt;div style=&quot;&quot;&gt;&lt;span&gt;return r&lt;/span&gt;&lt;/div&gt;&lt;/blockquote&gt;&lt;div style=&quot;&quot;&gt;&lt;span&gt;}&lt;/span&gt;&lt;/div&gt;" style="rounded=0;whiteSpace=wrap;html=1;dashed=1;dashPattern=1 1;align=left;connectable=0;allowArrows=0;" parent="1" vertex="1">
          <mxGeometry x="414" y="271" width="180" height="80" as="geometry" />
        </mxCell>
        <mxCell id="m2NS53Eczy5EkaWd5YY3-3" value="" style="endArrow=none;html=1;" parent="1" edge="1">
          <mxGeometry width="50" height="50" relative="1" as="geometry">
            <mxPoint x="210" y="480" as="sourcePoint" />
            <mxPoint x="210" y="240" as="targetPoint" />
          </mxGeometry>
        </mxCell>
        <mxCell id="m2NS53Eczy5EkaWd5YY3-4" value="" style="endArrow=none;html=1;" parent="1" edge="1">
          <mxGeometry width="50" height="50" relative="1" as="geometry">
            <mxPoint x="360" y="480" as="sourcePoint" />
            <mxPoint x="360" y="240" as="targetPoint" />
          </mxGeometry>
        </mxCell>
        <mxCell id="m2NS53Eczy5EkaWd5YY3-6" value="SP" style="endArrow=classic;html=1;" parent="1" edge="1">
          <mxGeometry x="-1" y="-10" width="50" height="50" relative="1" as="geometry">
            <mxPoint x="190" y="430" as="sourcePoint" />
            <mxPoint x="210" y="440" as="targetPoint" />
            <mxPoint x="-6" y="-9" as="offset" />
          </mxGeometry>
        </mxCell>
        <mxCell id="m2NS53Eczy5EkaWd5YY3-8" value="" style="endArrow=none;html=1;" parent="1" edge="1">
          <mxGeometry width="50" height="50" relative="1" as="geometry">
            <mxPoint x="210" y="360" as="sourcePoint" />
            <mxPoint x="360" y="360" as="targetPoint" />
          </mxGeometry>
        </mxCell>
        <mxCell id="m2NS53Eczy5EkaWd5YY3-9" value="" style="endArrow=none;html=1;" parent="1" edge="1">
          <mxGeometry width="50" height="50" relative="1" as="geometry">
            <mxPoint x="210" y="319.7600000000001" as="sourcePoint" />
            <mxPoint x="360" y="319.7600000000001" as="targetPoint" />
          </mxGeometry>
        </mxCell>
        <mxCell id="m2NS53Eczy5EkaWd5YY3-10" value="" style="endArrow=none;html=1;" parent="1" edge="1">
          <mxGeometry width="50" height="50" relative="1" as="geometry">
            <mxPoint x="210" y="280.0000000000001" as="sourcePoint" />
            <mxPoint x="360" y="280.0000000000001" as="targetPoint" />
          </mxGeometry>
        </mxCell>
        <mxCell id="m2NS53Eczy5EkaWd5YY3-14" value="SP+8" style="endArrow=classic;html=1;" parent="1" edge="1">
          <mxGeometry x="-1" y="-10" width="50" height="50" relative="1" as="geometry">
            <mxPoint x="190" y="390" as="sourcePoint" />
            <mxPoint x="210" y="400" as="targetPoint" />
            <mxPoint x="-6" y="-9" as="offset" />
          </mxGeometry>
        </mxCell>
        <mxCell id="m2NS53Eczy5EkaWd5YY3-15" value="SP+16" style="endArrow=classic;html=1;" parent="1" edge="1">
          <mxGeometry x="-1" y="-10" width="50" height="50" relative="1" as="geometry">
            <mxPoint x="190" y="350" as="sourcePoint" />
            <mxPoint x="210" y="360.0000000000001" as="targetPoint" />
            <mxPoint x="-6" y="-9" as="offset" />
          </mxGeometry>
        </mxCell>
        <mxCell id="m2NS53Eczy5EkaWd5YY3-16" value="SP+24" style="endArrow=classic;html=1;" parent="1" edge="1">
          <mxGeometry x="-1" y="-10" width="50" height="50" relative="1" as="geometry">
            <mxPoint x="190" y="310" as="sourcePoint" />
            <mxPoint x="210" y="320" as="targetPoint" />
            <mxPoint x="-6" y="-9" as="offset" />
          </mxGeometry>
        </mxCell>
        <mxCell id="m2NS53Eczy5EkaWd5YY3-17" value="" style="endArrow=none;html=1;" parent="1" edge="1">
          <mxGeometry width="50" height="50" relative="1" as="geometry">
            <mxPoint x="210" y="400" as="sourcePoint" />
            <mxPoint x="360" y="400" as="targetPoint" />
          </mxGeometry>
        </mxCell>
        <mxCell id="m2NS53Eczy5EkaWd5YY3-18" value="return adresss" style="text;html=1;strokeColor=none;fillColor=#99FF33;align=center;verticalAlign=middle;whiteSpace=wrap;rounded=0;connectable=0;" parent="1" vertex="1">
          <mxGeometry x="210" y="400" width="150" height="40" as="geometry" />
        </mxCell>
        <mxCell id="m2NS53Eczy5EkaWd5YY3-19" value="r int64" style="text;html=1;strokeColor=none;fillColor=#FFEE82;align=center;verticalAlign=middle;whiteSpace=wrap;rounded=0;" parent="1" vertex="1">
          <mxGeometry x="210" y="280" width="150" height="40" as="geometry" />
        </mxCell>
        <mxCell id="m2NS53Eczy5EkaWd5YY3-20" value="b int64" style="text;html=1;strokeColor=none;fillColor=#FF6666;align=center;verticalAlign=middle;whiteSpace=wrap;rounded=0;" parent="1" vertex="1">
          <mxGeometry x="210" y="320" width="150" height="40" as="geometry" />
        </mxCell>
        <mxCell id="m2NS53Eczy5EkaWd5YY3-21" value="a int64" style="text;html=1;strokeColor=none;fillColor=#FF6666;align=center;verticalAlign=middle;whiteSpace=wrap;rounded=0;" parent="1" vertex="1">
          <mxGeometry x="210" y="360" width="150" height="40" as="geometry" />
        </mxCell>
        <mxCell id="m2NS53Eczy5EkaWd5YY3-22" value="G" style="text;html=1;strokeColor=none;fillColor=none;align=center;verticalAlign=middle;whiteSpace=wrap;rounded=0;dashed=1;dashPattern=1 1;" parent="1" vertex="1">
          <mxGeometry x="484" y="246" width="40" height="20" as="geometry" />
        </mxCell>
        <mxCell id="m2NS53Eczy5EkaWd5YY3-23" value="&lt;div&gt;&lt;span&gt;func main() {&lt;/span&gt;&lt;/div&gt;&lt;blockquote style=&quot;margin: 0 0 0 40px ; border: none ; padding: 0px&quot;&gt;&lt;div&gt;res := sum(1,2)&lt;/div&gt;&lt;div&gt;print(res)&lt;/div&gt;&lt;/blockquote&gt;&lt;div&gt;&lt;span&gt;}&lt;/span&gt;&lt;/div&gt;" style="rounded=0;whiteSpace=wrap;html=1;dashed=1;dashPattern=1 1;align=left;connectable=0;allowArrows=0;" parent="1" vertex="1">
          <mxGeometry x="414" y="430" width="180" height="80" as="geometry" />
        </mxCell>
        <mxCell id="m2NS53Eczy5EkaWd5YY3-24" value="F" style="text;html=1;strokeColor=none;fillColor=none;align=center;verticalAlign=middle;whiteSpace=wrap;rounded=0;dashed=1;dashPattern=1 1;" parent="1" vertex="1">
          <mxGeometry x="484" y="400" width="40" height="20" as="geometry" />
        </mxCell>
        <mxCell id="m2NS53Eczy5EkaWd5YY3-52" value="" style="endArrow=classic;html=1;shadow=0;strokeColor=#000000;dashed=1;" parent="1" edge="1">
          <mxGeometry width="50" height="50" relative="1" as="geometry">
            <mxPoint x="531" y="280" as="sourcePoint" />
            <mxPoint x="367" y="296" as="targetPoint" />
            <Array as="points">
              <mxPoint x="531" y="210" />
              <mxPoint x="380" y="210" />
              <mxPoint x="380" y="296" />
            </Array>
          </mxGeometry>
        </mxCell>
        <mxCell id="s9qX00nunAVpx22hSQQi-1" value="0xFF...FFFF" style="text;html=1;strokeColor=none;fillColor=none;align=center;verticalAlign=middle;whiteSpace=wrap;rounded=0;" parent="1" vertex="1">
          <mxGeometry x="210" y="216" width="150" height="20" as="geometry" />
        </mxCell>
        <mxCell id="s9qX00nunAVpx22hSQQi-3" value="0x00..0000" style="text;html=1;strokeColor=none;fillColor=none;align=center;verticalAlign=middle;whiteSpace=wrap;rounded=0;" parent="1" vertex="1">
          <mxGeometry x="210" y="480" width="150" height="20" as="geometry" />
        </mxCell>
        <mxCell id="m2NS53Eczy5EkaWd5YY3-5" value="" style="shape=link;html=1;fillColor=#CC0066;" parent="1" edge="1">
          <mxGeometry width="100" relative="1" as="geometry">
            <mxPoint x="210" y="442" as="sourcePoint" />
            <mxPoint x="360" y="442" as="targetPoint" />
          </mxGeometry>
        </mxCell>
        <mxCell id="s9qX00nunAVpx22hSQQi-4" value="" style="endArrow=classic;html=1;shadow=0;strokeColor=#000000;dashed=1;" parent="1" edge="1">
          <mxGeometry width="50" height="50" relative="1" as="geometry">
            <mxPoint x="519" y="456" as="sourcePoint" />
            <mxPoint x="365" y="384" as="targetPoint" />
            <Array as="points">
              <mxPoint x="519" y="412" />
              <mxPoint x="519" y="384" />
              <mxPoint x="414" y="384" />
            </Array>
          </mxGeometry>
        </mxCell>
        <mxCell id="s9qX00nunAVpx22hSQQi-5" value="" style="endArrow=classic;html=1;shadow=0;strokeColor=#000000;dashed=1;" parent="1" edge="1">
          <mxGeometry width="50" height="50" relative="1" as="geometry">
            <mxPoint x="367" y="376" as="sourcePoint" />
            <mxPoint x="472" y="282" as="targetPoint" />
            <Array as="points">
              <mxPoint x="404" y="376" />
              <mxPoint x="404" y="260" />
              <mxPoint x="472" y="260" />
            </Array>
          </mxGeometry>
        </mxCell>
        <mxCell id="s9qX00nunAVpx22hSQQi-6" value="" style="endArrow=classic;html=1;shadow=0;strokeColor=#000000;dashed=1;" parent="1" edge="1">
          <mxGeometry width="50" height="50" relative="1" as="geometry">
            <mxPoint x="368" y="305" as="sourcePoint" />
            <mxPoint x="453" y="462" as="targetPoint" />
            <Array as="points">
              <mxPoint x="385" y="305" />
              <mxPoint x="385" y="462" />
              <mxPoint x="407" y="462" />
            </Array>
          </mxGeometry>
        </mxCell>
        <mxCell id="s9qX00nunAVpx22hSQQi-7" value="&lt;div style=&quot;&quot;&gt;&lt;span&gt;func sum(a, b int64) (r int64) {&lt;/span&gt;&lt;/div&gt;&lt;blockquote style=&quot;margin: 0 0 0 40px ; border: none ; padding: 0px&quot;&gt;&lt;div style=&quot;&quot;&gt;&lt;span&gt;r = a + b&lt;/span&gt;&lt;/div&gt;&lt;div style=&quot;&quot;&gt;&lt;span&gt;return r&lt;/span&gt;&lt;/div&gt;&lt;/blockquote&gt;&lt;div style=&quot;&quot;&gt;&lt;span&gt;}&lt;/span&gt;&lt;/div&gt;" style="rounded=0;whiteSpace=wrap;html=1;dashed=1;dashPattern=1 1;align=left;connectable=0;allowArrows=0;" parent="1" vertex="1">
          <mxGeometry x="230" y="1228" width="180" height="80" as="geometry" />
        </mxCell>
        <mxCell id="s9qX00nunAVpx22hSQQi-22" value="G" style="text;html=1;strokeColor=none;fillColor=none;align=center;verticalAlign=middle;whiteSpace=wrap;rounded=0;dashed=1;dashPattern=1 1;" parent="1" vertex="1">
          <mxGeometry x="300" y="1203" width="40" height="20" as="geometry" />
        </mxCell>
        <mxCell id="s9qX00nunAVpx22hSQQi-23" value="&lt;div&gt;&lt;span&gt;func main() {&lt;/span&gt;&lt;/div&gt;&lt;blockquote style=&quot;margin: 0 0 0 40px ; border: none ; padding: 0px&quot;&gt;&lt;div&gt;res := sum(1,2)&lt;/div&gt;&lt;div&gt;print(res)&lt;/div&gt;&lt;/blockquote&gt;&lt;div&gt;&lt;span&gt;}&lt;/span&gt;&lt;/div&gt;" style="rounded=0;whiteSpace=wrap;html=1;dashed=1;dashPattern=1 1;align=left;connectable=0;allowArrows=0;" parent="1" vertex="1">
          <mxGeometry x="230" y="1403" width="180" height="80" as="geometry" />
        </mxCell>
        <mxCell id="s9qX00nunAVpx22hSQQi-24" value="F" style="text;html=1;strokeColor=none;fillColor=none;align=center;verticalAlign=middle;whiteSpace=wrap;rounded=0;dashed=1;dashPattern=1 1;" parent="1" vertex="1">
          <mxGeometry x="300" y="1373" width="40" height="20" as="geometry" />
        </mxCell>
        <mxCell id="s9qX00nunAVpx22hSQQi-30" value="" style="endArrow=classic;html=1;shadow=0;strokeColor=#000000;dashed=1;" parent="1" edge="1">
          <mxGeometry width="50" height="50" relative="1" as="geometry">
            <mxPoint x="160" y="1319" as="sourcePoint" />
            <mxPoint x="265" y="1438" as="targetPoint" />
            <Array as="points">
              <mxPoint x="200" y="1319" />
              <mxPoint x="200" y="1438" />
            </Array>
          </mxGeometry>
        </mxCell>
        <mxCell id="s9qX00nunAVpx22hSQQi-32" value="AX" style="rounded=1;whiteSpace=wrap;html=1;fillColor=#FF6666;" parent="1" vertex="1">
          <mxGeometry x="120" y="1293" width="35" height="35" as="geometry" />
        </mxCell>
        <mxCell id="s9qX00nunAVpx22hSQQi-33" value="BX" style="rounded=1;whiteSpace=wrap;html=1;fillColor=#99FF33;labelBackgroundColor=none;connectable=0;" parent="1" vertex="1">
          <mxGeometry x="120" y="1363" width="35" height="35" as="geometry" />
        </mxCell>
        <mxCell id="s9qX00nunAVpx22hSQQi-35" value="" style="endArrow=classic;html=1;shadow=0;strokeColor=#000000;dashed=1;" parent="1" edge="1">
          <mxGeometry width="50" height="50" relative="1" as="geometry">
            <mxPoint x="160" y="1295" as="sourcePoint" />
            <mxPoint x="288" y="1240" as="targetPoint" />
            <Array as="points">
              <mxPoint x="200" y="1295" />
              <mxPoint x="200" y="1215" />
              <mxPoint x="288" y="1215" />
            </Array>
          </mxGeometry>
        </mxCell>
        <mxCell id="s9qX00nunAVpx22hSQQi-36" value="" style="endArrow=classic;html=1;shadow=0;strokeColor=#000000;dashed=1;" parent="1" edge="1">
          <mxGeometry width="50" height="50" relative="1" as="geometry">
            <mxPoint x="336" y="1424" as="sourcePoint" />
            <mxPoint x="161" y="1312" as="targetPoint" />
            <Array as="points">
              <mxPoint x="336" y="1358" />
              <mxPoint x="336" y="1312" />
            </Array>
          </mxGeometry>
        </mxCell>
        <mxCell id="s9qX00nunAVpx22hSQQi-37" value="" style="endArrow=classic;html=1;shadow=0;strokeColor=#000000;dashed=1;" parent="1" edge="1">
          <mxGeometry width="50" height="50" relative="1" as="geometry">
            <mxPoint x="346" y="1241" as="sourcePoint" />
            <mxPoint x="149" y="1289" as="targetPoint" />
            <Array as="points">
              <mxPoint x="346" y="1200" />
              <mxPoint x="149" y="1201" />
            </Array>
          </mxGeometry>
        </mxCell>
        <mxCell id="s9qX00nunAVpx22hSQQi-38" value="" style="endArrow=classic;html=1;shadow=0;strokeColor=#000000;dashed=1;" parent="1" edge="1">
          <mxGeometry width="50" height="50" relative="1" as="geometry">
            <mxPoint x="346" y="1447" as="sourcePoint" />
            <mxPoint x="142" y="1401" as="targetPoint" />
            <Array as="points">
              <mxPoint x="346" y="1492" />
              <mxPoint x="142" y="1492" />
            </Array>
          </mxGeometry>
        </mxCell>
        <mxCell id="s9qX00nunAVpx22hSQQi-40" value="" style="endArrow=classic;html=1;shadow=0;strokeColor=#000000;dashed=1;" parent="1" edge="1">
          <mxGeometry width="50" height="50" relative="1" as="geometry">
            <mxPoint x="160" y="1381" as="sourcePoint" />
            <mxPoint x="301" y="1240" as="targetPoint" />
            <Array as="points">
              <mxPoint x="187" y="1381" />
              <mxPoint x="187" y="1208" />
              <mxPoint x="301" y="1208" />
            </Array>
          </mxGeometry>
        </mxCell>
        <mxCell id="s9qX00nunAVpx22hSQQi-44" value="" style="endArrow=classic;html=1;shadow=0;strokeColor=#000000;dashed=1;" parent="1" edge="1">
          <mxGeometry width="50" height="50" relative="1" as="geometry">
            <mxPoint x="330" y="420" as="sourcePoint" />
            <mxPoint x="450" y="475" as="targetPoint" />
            <Array as="points">
              <mxPoint x="371" y="420" />
              <mxPoint x="371" y="475" />
              <mxPoint x="380" y="475" />
            </Array>
          </mxGeometry>
        </mxCell>
        <mxCell id="lfOL7bnSdx20tr7RyeLw-1" value="Client" style="rounded=1;whiteSpace=wrap;html=1;" vertex="1" parent="1">
          <mxGeometry x="501" y="1732" width="120" height="60" as="geometry" />
        </mxCell>
        <mxCell id="lfOL7bnSdx20tr7RyeLw-2" value="Server" style="rounded=1;whiteSpace=wrap;html=1;" vertex="1" parent="1">
          <mxGeometry x="116" y="1731" width="120" height="60" as="geometry" />
        </mxCell>
        <mxCell id="lfOL7bnSdx20tr7RyeLw-3" value="" style="endArrow=none;html=1;rounded=0;" edge="1" parent="1" source="lfOL7bnSdx20tr7RyeLw-5" target="lfOL7bnSdx20tr7RyeLw-1">
          <mxGeometry width="50" height="50" relative="1" as="geometry">
            <mxPoint x="561" y="2278" as="sourcePoint" />
            <mxPoint x="437" y="2024" as="targetPoint" />
          </mxGeometry>
        </mxCell>
        <mxCell id="lfOL7bnSdx20tr7RyeLw-4" value="" style="endArrow=none;html=1;rounded=0;" edge="1" parent="1" source="lfOL7bnSdx20tr7RyeLw-7">
          <mxGeometry width="50" height="50" relative="1" as="geometry">
            <mxPoint x="174" y="2277" as="sourcePoint" />
            <mxPoint x="174" y="1791" as="targetPoint" />
          </mxGeometry>
        </mxCell>
        <mxCell id="lfOL7bnSdx20tr7RyeLw-6" value="" style="endArrow=none;html=1;rounded=0;" edge="1" parent="1" source="lfOL7bnSdx20tr7RyeLw-10" target="lfOL7bnSdx20tr7RyeLw-5">
          <mxGeometry width="50" height="50" relative="1" as="geometry">
            <mxPoint x="561" y="2278" as="sourcePoint" />
            <mxPoint x="561" y="1792" as="targetPoint" />
          </mxGeometry>
        </mxCell>
        <mxCell id="lfOL7bnSdx20tr7RyeLw-5" value="" style="rounded=0;whiteSpace=wrap;html=1;" vertex="1" parent="1">
          <mxGeometry x="559" y="1812" width="5" height="44" as="geometry" />
        </mxCell>
        <mxCell id="lfOL7bnSdx20tr7RyeLw-8" value="" style="endArrow=none;html=1;rounded=0;" edge="1" parent="1" source="lfOL7bnSdx20tr7RyeLw-13" target="lfOL7bnSdx20tr7RyeLw-7">
          <mxGeometry width="50" height="50" relative="1" as="geometry">
            <mxPoint x="174" y="2277" as="sourcePoint" />
            <mxPoint x="174" y="1791" as="targetPoint" />
          </mxGeometry>
        </mxCell>
        <mxCell id="lfOL7bnSdx20tr7RyeLw-7" value="" style="rounded=0;whiteSpace=wrap;html=1;" vertex="1" parent="1">
          <mxGeometry x="172" y="1841" width="5" height="44" as="geometry" />
        </mxCell>
        <mxCell id="lfOL7bnSdx20tr7RyeLw-9" value="Connect" style="endArrow=classic;html=1;rounded=0;fillColor=#d5e8d4;strokeColor=#82b366;strokeWidth=2;" edge="1" parent="1">
          <mxGeometry width="50" height="50" relative="1" as="geometry">
            <mxPoint x="558" y="1833" as="sourcePoint" />
            <mxPoint x="178" y="1860" as="targetPoint" />
          </mxGeometry>
        </mxCell>
        <mxCell id="lfOL7bnSdx20tr7RyeLw-11" value="" style="endArrow=none;html=1;rounded=0;" edge="1" parent="1" source="lfOL7bnSdx20tr7RyeLw-16" target="lfOL7bnSdx20tr7RyeLw-10">
          <mxGeometry width="50" height="50" relative="1" as="geometry">
            <mxPoint x="561" y="2278" as="sourcePoint" />
            <mxPoint x="561" y="1856" as="targetPoint" />
          </mxGeometry>
        </mxCell>
        <mxCell id="lfOL7bnSdx20tr7RyeLw-10" value="" style="rounded=0;whiteSpace=wrap;html=1;" vertex="1" parent="1">
          <mxGeometry x="559" y="1897" width="5" height="44" as="geometry" />
        </mxCell>
        <mxCell id="lfOL7bnSdx20tr7RyeLw-12" value="Accept" style="endArrow=classic;html=1;rounded=0;fillColor=#d5e8d4;strokeColor=#82b366;strokeWidth=2;" edge="1" parent="1">
          <mxGeometry width="50" height="50" relative="1" as="geometry">
            <mxPoint x="179" y="1867" as="sourcePoint" />
            <mxPoint x="555" y="1917" as="targetPoint" />
          </mxGeometry>
        </mxCell>
        <mxCell id="lfOL7bnSdx20tr7RyeLw-14" value="" style="endArrow=none;html=1;rounded=0;" edge="1" parent="1" source="lfOL7bnSdx20tr7RyeLw-21" target="lfOL7bnSdx20tr7RyeLw-13">
          <mxGeometry width="50" height="50" relative="1" as="geometry">
            <mxPoint x="174" y="2277" as="sourcePoint" />
            <mxPoint x="174" y="1885" as="targetPoint" />
          </mxGeometry>
        </mxCell>
        <mxCell id="lfOL7bnSdx20tr7RyeLw-13" value="" style="rounded=0;whiteSpace=wrap;html=1;" vertex="1" parent="1">
          <mxGeometry x="172" y="1921" width="5" height="44" as="geometry" />
        </mxCell>
        <mxCell id="lfOL7bnSdx20tr7RyeLw-15" value="SSL_connect" style="endArrow=classic;html=1;rounded=0;fillColor=#f8cecc;strokeColor=#b85450;strokeWidth=2;" edge="1" parent="1">
          <mxGeometry width="50" height="50" relative="1" as="geometry">
            <mxPoint x="555" y="1922" as="sourcePoint" />
            <mxPoint x="179" y="1940" as="targetPoint" />
          </mxGeometry>
        </mxCell>
        <mxCell id="lfOL7bnSdx20tr7RyeLw-17" value="" style="endArrow=none;html=1;rounded=0;" edge="1" parent="1" source="lfOL7bnSdx20tr7RyeLw-19" target="lfOL7bnSdx20tr7RyeLw-16">
          <mxGeometry width="50" height="50" relative="1" as="geometry">
            <mxPoint x="561" y="2278" as="sourcePoint" />
            <mxPoint x="561" y="1941" as="targetPoint" />
          </mxGeometry>
        </mxCell>
        <mxCell id="lfOL7bnSdx20tr7RyeLw-16" value="" style="rounded=0;whiteSpace=wrap;html=1;" vertex="1" parent="1">
          <mxGeometry x="559" y="1977" width="5" height="44" as="geometry" />
        </mxCell>
        <mxCell id="lfOL7bnSdx20tr7RyeLw-18" value="SSL_accept" style="endArrow=classic;html=1;rounded=0;fillColor=#f8cecc;strokeColor=#b85450;strokeWidth=2;" edge="1" parent="1">
          <mxGeometry width="50" height="50" relative="1" as="geometry">
            <mxPoint x="181" y="1947" as="sourcePoint" />
            <mxPoint x="557" y="1997" as="targetPoint" />
          </mxGeometry>
        </mxCell>
        <mxCell id="lfOL7bnSdx20tr7RyeLw-20" value="" style="endArrow=none;html=1;rounded=0;" edge="1" parent="1" source="lfOL7bnSdx20tr7RyeLw-23" target="lfOL7bnSdx20tr7RyeLw-19">
          <mxGeometry width="50" height="50" relative="1" as="geometry">
            <mxPoint x="561" y="2278" as="sourcePoint" />
            <mxPoint x="561" y="2021" as="targetPoint" />
          </mxGeometry>
        </mxCell>
        <mxCell id="lfOL7bnSdx20tr7RyeLw-19" value="" style="rounded=0;whiteSpace=wrap;html=1;" vertex="1" parent="1">
          <mxGeometry x="559" y="2040" width="5" height="44" as="geometry" />
        </mxCell>
        <mxCell id="lfOL7bnSdx20tr7RyeLw-22" value="" style="endArrow=none;html=1;rounded=0;" edge="1" parent="1" target="lfOL7bnSdx20tr7RyeLw-21">
          <mxGeometry width="50" height="50" relative="1" as="geometry">
            <mxPoint x="174" y="2277" as="sourcePoint" />
            <mxPoint x="174" y="1965" as="targetPoint" />
          </mxGeometry>
        </mxCell>
        <mxCell id="lfOL7bnSdx20tr7RyeLw-21" value="SSL_read" style="rounded=0;whiteSpace=wrap;html=1;direction=west;align=left;" vertex="1" parent="1">
          <mxGeometry x="171" y="2060" width="5" height="44" as="geometry" />
        </mxCell>
        <mxCell id="lfOL7bnSdx20tr7RyeLw-24" value="" style="endArrow=none;html=1;rounded=0;" edge="1" parent="1" source="lfOL7bnSdx20tr7RyeLw-25" target="lfOL7bnSdx20tr7RyeLw-23">
          <mxGeometry width="50" height="50" relative="1" as="geometry">
            <mxPoint x="561" y="2278" as="sourcePoint" />
            <mxPoint x="561" y="2084" as="targetPoint" />
          </mxGeometry>
        </mxCell>
        <mxCell id="lfOL7bnSdx20tr7RyeLw-23" value="SSL_read" style="rounded=0;whiteSpace=wrap;html=1;align=left;" vertex="1" parent="1">
          <mxGeometry x="558" y="2117" width="5" height="44" as="geometry" />
        </mxCell>
        <mxCell id="lfOL7bnSdx20tr7RyeLw-26" value="" style="endArrow=none;html=1;rounded=0;" edge="1" parent="1" target="lfOL7bnSdx20tr7RyeLw-25">
          <mxGeometry width="50" height="50" relative="1" as="geometry">
            <mxPoint x="561" y="2278" as="sourcePoint" />
            <mxPoint x="561" y="2172" as="targetPoint" />
          </mxGeometry>
        </mxCell>
        <mxCell id="lfOL7bnSdx20tr7RyeLw-25" value="" style="rounded=0;whiteSpace=wrap;html=1;" vertex="1" parent="1">
          <mxGeometry x="559" y="2198" width="5" height="44" as="geometry" />
        </mxCell>
        <mxCell id="lfOL7bnSdx20tr7RyeLw-27" value="SSL_write (send request)" style="endArrow=classic;html=1;rounded=0;fillColor=#f8cecc;strokeColor=#b85450;strokeWidth=2;" edge="1" parent="1">
          <mxGeometry width="50" height="50" relative="1" as="geometry">
            <mxPoint x="556" y="2052" as="sourcePoint" />
            <mxPoint x="180" y="2070" as="targetPoint" />
          </mxGeometry>
        </mxCell>
        <mxCell id="lfOL7bnSdx20tr7RyeLw-28" value="SSL_accept (send response)" style="endArrow=classic;html=1;rounded=0;fillColor=#f8cecc;strokeColor=#b85450;strokeWidth=2;" edge="1" parent="1">
          <mxGeometry width="50" height="50" relative="1" as="geometry">
            <mxPoint x="182" y="2095" as="sourcePoint" />
            <mxPoint x="558" y="2145" as="targetPoint" />
          </mxGeometry>
        </mxCell>
        <mxCell id="lfOL7bnSdx20tr7RyeLw-31" value="SSL_write (send request)" style="endArrow=classic;html=1;rounded=0;fillColor=#f8cecc;strokeColor=#b85450;strokeWidth=2;" edge="1" parent="1">
          <mxGeometry width="50" height="50" relative="1" as="geometry">
            <mxPoint x="556" y="2220" as="sourcePoint" />
            <mxPoint x="180" y="2238" as="targetPoint" />
          </mxGeometry>
        </mxCell>
      </root>
    </mxGraphModel>
  </diagram>
</mxfile>
